<svg width="72" height="72" viewBox="0 0 72 72" fill="none" xmlns="http://www.w3.org/2000/svg">
<path d="M13.7476 8.68136L10.0586 5.1956L13.6693 2.00104H14.6309L10.7855 5.3901V4.98263L14.7298 8.68245H13.7476V8.68136Z" fill="#111111" stroke="#111111" stroke-width="0.543293" stroke-miterlimit="10"/>
<path d="M31.4731 21.9431L44.3633 21.9431L44.3633 20.9782L31.4731 20.9782L31.4731 21.9431Z" fill="#111111" stroke="#111111" stroke-width="0.543293" stroke-miterlimit="10"/>
<path d="M28.7852 38.5824L31.4723 20.9786L32.4469 21.1242L29.7609 38.728L28.7852 38.5824Z" fill="#111111" stroke="#111111" stroke-width="0.543293" stroke-miterlimit="10"/>
<path d="M62.6075 45.3242H47.9375V46.288H62.6075V45.3242Z" fill="#111111" stroke="#111111" stroke-width="0.543293" stroke-miterlimit="10"/>
<path d="M48.8931 45.472L45.303 68.9999L44.3359 68.8553L47.9271 45.3275L48.8931 45.472Z" fill="#111111" stroke="#111111" stroke-width="0.543293" stroke-miterlimit="10"/>
<path d="M49.0859 38.5735L50.8766 26.8394L51.8426 26.9839L50.0736 38.5735H49.0859Z" fill="#111111" stroke="#111111" stroke-width="0.543293" stroke-miterlimit="10"/>
<path d="M62.605 37.6107H49.2422V38.5713H62.605V37.6107Z" fill="#111111" stroke="#111111" stroke-width="0.543293" stroke-miterlimit="10"/>
<path d="M27.6137 46.2908L40.5039 46.2908L40.5039 45.327L27.6137 45.327L27.6137 46.2908Z" fill="#111111" stroke="#111111" stroke-width="0.543293" stroke-miterlimit="10"/>
<path d="M28.5694 45.4732L26.7809 57.1877L25.8203 57.0442L27.6088 45.3298L28.5694 45.4732Z" fill="#111111" stroke="#111111" stroke-width="0.543293" stroke-miterlimit="10"/>
<path d="M20.1063 45.3275H10V46.2913H20.1063V45.3275Z" fill="#111111" stroke="#111111" stroke-width="0.543293" stroke-miterlimit="10"/>
<path d="M62.5968 12.7648H52.6133V13.7329H62.5968V12.7648Z" fill="#111111" stroke="#111111" stroke-width="0.543293" stroke-miterlimit="10"/>
<path d="M55.2137 2.14452L53.4447 13.7329H52.457L54.2477 2L55.2137 2.14452Z" fill="#111111" stroke="#111111" stroke-width="0.543293" stroke-miterlimit="10"/>
<path d="M34.502 7.90875L33.586 13.9089L32.6211 13.7644L33.5371 7.76532L34.502 7.90875Z" fill="#111111" stroke="#111111" stroke-width="0.543293" stroke-miterlimit="10"/>
<path d="M20.4883 24.0859V17.4056H21.2043V24.0859H20.4883ZM25.6094 20.737C25.6094 20.2122 25.4953 19.7504 25.266 19.3484C25.0367 18.9474 24.7194 18.6312 24.3141 18.402C23.9089 18.1727 23.4405 18.0575 22.9114 18.0575H20.949V17.4067H22.9309C23.421 17.4067 23.8741 17.4892 24.2892 17.6544C24.7042 17.8196 25.0672 18.0521 25.3779 18.3531C25.6887 18.6541 25.9288 19.0072 26.0994 19.4114C26.27 19.8156 26.3548 20.2611 26.3548 20.7468" fill="#111111"/>
<path d="M25.6094 20.737C25.6094 20.2122 25.4953 19.7504 25.266 19.3484C25.0367 18.9474 24.7194 18.6312 24.3141 18.402C23.9089 18.1727 23.4405 18.0575 22.9114 18.0575H20.949V17.4067H22.9309C23.421 17.4067 23.8741 17.4892 24.2892 17.6544C24.7042 17.8196 25.0672 18.0521 25.3779 18.3531C25.6887 18.6541 25.9288 19.0072 26.0994 19.4114C26.27 19.8156 26.3548 20.2611 26.3548 20.7468M20.4883 24.0859V17.4056H21.2043V24.0859H20.4883Z" stroke="#111111" stroke-width="0.543293" stroke-miterlimit="10"/>
<path d="M33.5361 58.6057C33.322 58.1265 33.2101 57.6419 33.2036 57.1529C33.196 56.664 33.2851 56.1967 33.4698 55.7523C33.6545 55.3068 33.9207 54.9091 34.2695 54.5593C34.6183 54.2094 35.0345 53.9279 35.5191 53.7161L35.8494 54.4549C35.4506 54.6299 35.1094 54.857 34.8269 55.1351C34.5444 55.4133 34.3293 55.7252 34.1815 56.0685C34.0337 56.4119 33.962 56.7726 33.9664 57.1508C33.9707 57.5289 34.0576 57.9049 34.225 58.2808C34.4162 58.7089 34.6618 59.0566 34.9617 59.3239C35.2616 59.5912 35.5941 59.7846 35.9602 59.9031L35.6766 60.6083C35.2225 60.4507 34.8095 60.2051 34.4379 59.8727C34.0652 59.5391 33.7643 59.1175 33.5361 58.6057Z" fill="#111111" stroke="#111111" stroke-width="0.543293" stroke-miterlimit="10"/>
<path d="M59.0242 62.336L61.7374 69H62.5013L59.7413 62.336H59.4077H59.0242ZM61.2386 67.2658V66.6367H57.7148V67.2658H61.2386Z" fill="#111111" stroke="#111111" stroke-width="0.543293" stroke-miterlimit="10"/>
</svg>
